<svg xmlns="http://www.w3.org/2000/svg" viewBox="0 0 1200 800" width="1200" height="800" role="img" aria-label="Placeholder artwork: bench-top test rig with a control enclosure and two pneumatic cylinders">
  <defs>
    <linearGradient id="bg" x1="0" y1="0" x2="1" y2="1">
      <stop offset="0" stop-color="#070c16"/>
      <stop offset="1" stop-color="#0d1626"/>
    </linearGradient>
    <pattern id="grid" width="40" height="40" patternUnits="userSpaceOnUse">
      <path d="M40 0H0V40" fill="none" stroke="#1b2a45" stroke-width="1"/>
    </pattern>
    <pattern id="hatch" width="16" height="16" patternUnits="userSpaceOnUse">
      <path d="M0 16L16 0" fill="none" stroke="#3a4f74" stroke-width="2" opacity="0.6"/>
    </pattern>
  </defs>
  <rect width="1200" height="800" fill="url(#bg)"/>
  <rect width="1200" height="800" fill="url(#grid)" opacity="0.45"/>

  <rect x="100" y="600" width="1000" height="46" rx="6" fill="url(#hatch)" stroke="#3a4f74" stroke-width="3"/>

  <rect x="140" y="250" width="260" height="350" rx="12" fill="none" stroke="#fbbf24" stroke-width="4"/>
  <rect x="156" y="266" width="228" height="318" rx="8" fill="#fbbf24" opacity="0.05"/>
  <rect x="176" y="290" width="188" height="120" rx="6" fill="none" stroke="#22c55e" stroke-width="3"/>
  <path d="M176 330h188M176 370h188M240 290v120M300 290v120" stroke="#22c55e" stroke-width="2" opacity="0.45"/>
  <circle cx="200" cy="450" r="16" fill="none" stroke="#22c55e" stroke-width="3"/>
  <circle cx="260" cy="450" r="16" fill="none" stroke="#fbbf24" stroke-width="3"/>
  <circle cx="320" cy="450" r="16" fill="none" stroke="#3a4f74" stroke-width="3"/>
  <g>
    <circle cx="200" cy="510" r="8" fill="#22c55e"/>
    <circle cx="240" cy="510" r="8" fill="#fbbf24"/>
    <circle cx="280" cy="510" r="8" fill="#26385a"/>
  </g>
  <text x="270" y="570" text-anchor="middle" font-family="ui-monospace, Menlo, Consolas, monospace" font-size="20" fill="#94a3b8" letter-spacing="3">CONTROL PANEL</text>

  <g fill="none" stroke="#22c55e" stroke-width="4">
    <rect x="540" y="330" width="220" height="70" rx="8"/>
    <path d="M760 345h150M760 385h150"/>
    <rect x="910" y="345" width="24" height="40" rx="4" fill="#22c55e" opacity="0.5"/>
    <rect x="540" y="470" width="220" height="70" rx="8"/>
    <path d="M760 485h90M760 525h90"/>
    <rect x="850" y="485" width="24" height="40" rx="4" fill="#22c55e" opacity="0.5"/>
  </g>
  <g font-family="ui-monospace, Menlo, Consolas, monospace" font-size="19" fill="#4ade80">
    <text x="600" y="312">CYLINDER 1</text>
    <text x="600" y="452">CYLINDER 2</text>
  </g>

  <g fill="none" stroke="#fbbf24" stroke-width="3" stroke-dasharray="8 8" opacity="0.7">
    <path d="M400 400H540"/>
    <path d="M400 505H540"/>
  </g>
  <g fill="#04070d" stroke="#fbbf24" stroke-width="3">
    <circle cx="540" cy="400" r="7"/>
    <circle cx="540" cy="505" r="7"/>
  </g>

  <g fill="none" stroke="#fbbf24" stroke-width="3" opacity="0.5">
    <path d="M60 120V60h60M1140 120V60h-60M60 680v60h60M1140 680v60h-60"/>
  </g>

  <text x="60" y="730" font-family="ui-monospace, Menlo, Consolas, monospace" font-size="30" fill="#fbbf24" letter-spacing="4">FINAL WORKING MODEL</text>
  <text x="60" y="766" font-family="ui-monospace, Menlo, Consolas, monospace" font-size="22" fill="#64748b" letter-spacing="3">PLACEHOLDER · REPLACE WITH PROJECT ASSET</text>
  <rect x="1.5" y="1.5" width="1197" height="797" fill="none" stroke="#26385a" stroke-width="3"/>
</svg>
